<svg xmlns="http://www.w3.org/2000/svg" width="16" height="16" viewBox="0 0 16 16">
  <path id="ic_instagram" d="M-2764-224a4.012,4.012,0,0,1-4-4v-8a4.012,4.012,0,0,1,4-4h8a4.012,4.012,0,0,1,4,4v8a4.012,4.012,0,0,1-4,4Zm-2.667-12v8a2.67,2.67,0,0,0,2.667,2.667h8a2.67,2.67,0,0,0,2.667-2.667v-8a2.669,2.669,0,0,0-2.667-2.667h-8A2.67,2.67,0,0,0-2766.662-236Zm2.667,4a4,4,0,0,1,4-4,4,4,0,0,1,4,4,4,4,0,0,1-4,4A4,4,0,0,1-2764-232Zm1.333,0a2.667,2.667,0,0,0,2.667,2.667,2.667,2.667,0,0,0,2.667-2.667,2.666,2.666,0,0,0-2.667-2.667A2.667,2.667,0,0,0-2762.662-232Zm6-4.333a1,1,0,0,1,1-1,1,1,0,0,1,1,1,1,1,0,0,1-1,1A1,1,0,0,1-2756.661-236.334Z" transform="translate(2767.995 240)" fill="#0047ba"/>
</svg>
